<?xml version="1.0" encoding="UTF-8" standalone="no"?>
<!DOCTYPE svg PUBLIC "-//W3C//DTD SVG 1.1//EN" "http://www.w3.org/Graphics/SVG/1.1/DTD/svg11.dtd">
<svg width="100%" height="100%" viewBox="0 0 100 100" version="1.1" xmlns="http://www.w3.org/2000/svg" xmlns:xlink="http://www.w3.org/1999/xlink" xml:space="preserve" xmlns:serif="http://www.serif.com/" style="fill-rule:evenodd;clip-rule:evenodd;stroke-linejoin:round;stroke-miterlimit:2;">
    <g transform="matrix(1.97516,0,0,1.97516,-48.757988,-48.757988)">
        <path d="M41.545,65.727C41.535,65.727 41.525,65.727 41.515,65.727C40.746,65.728 39.977,65.435 39.392,64.849L39.304,64.758L30.91,56.364C29.739,55.193 29.739,53.292 30.91,52.121C32.081,50.951 33.982,50.951 35.153,52.121L41.515,58.483L64.847,35.151C66.018,33.98 67.919,33.98 69.09,35.151C70.261,36.322 70.261,38.223 69.09,39.393L43.725,64.758L43.638,64.849L43.611,64.876C43.611,64.873 43.611,64.871 43.611,64.868C43.581,64.899 43.55,64.929 43.518,64.959C43.518,64.96 43.518,64.961 43.518,64.963C43.485,64.993 43.451,65.022 43.416,65.05C42.921,65.472 42.277,65.727 41.573,65.727C41.564,65.727 41.554,65.727 41.545,65.727Z" style="fill:rgb(95,210,95);"/>
    </g>
</svg>
